# xmcd
#
# Track frame offsets: 
#        150
#        22189
#        46942
#        75316
#        102576
#        130088
#        151466
#        185273
#        210461
#        230525
#
# Disc length: 3470 seconds
#
# Revision: 0
# Processed by: cddbd v1.5.2PL0 Copyright (c) Steve Scherf et al.
# Submitted via: ExactAudioCopy v1.0b3
#
DISCID=7a0d8c0a
DTITLE=Tomas Edström - Global Journey
DYEAR=2008
DGENRE=Electronic
TTITLE0=This Is My Dream
TTITLE1=Just Beyond
TTITLE2=Kaa
TTITLE3=Most Beautiful
TTITLE4=Wise River
TTITLE5=The World Is Our Mother
TTITLE6=Northern Light
TTITLE7=Slow Fire
TTITLE8=Bamboo
TTITLE9=Storyteller
EXTD=
EXTT0=
EXTT1=
EXTT2=
EXTT3=
EXTT4=
EXTT5=
EXTT6=
EXTT7=
EXTT8=
EXTT9=
PLAYORDER=
